<svg width="149" height="119" viewBox="0 0 149 119" fill="none" xmlns="http://www.w3.org/2000/svg">
<path d="M49.9816 59.8766H44.1014" stroke="black"/>
<path d="M38.9562 59.8766H33.076" stroke="black"/>
<path d="M27.9309 59.8766H22.0507" stroke="black"/>
<path d="M16.9053 59.8766H11.0251" stroke="black"/>
<path d="M5.88019 59.8766H0" stroke="black"/>
<path d="M104.916 59.8766H99.0361" stroke="black"/>
<path d="M93.8903 59.8766H88.0101" stroke="black"/>
<path d="M82.8651 59.8766H76.9849" stroke="black"/>
<path d="M71.8397 59.8766H65.9595" stroke="black"/>
<path d="M60.8146 59.8766H54.9343" stroke="black"/>
<path d="M148.825 59.8766H142.945" stroke="black"/>
<path d="M137.799 59.8766H131.92" stroke="black"/>
<path d="M126.774 59.8766H120.894" stroke="black"/>
<path d="M115.749 59.8766H109.869" stroke="black"/>
<path d="M77.1572 70.515H105.518V82.6832H97.8516V77.6226H88.7039V84.6602H95.7822V91.4861H88.7039V99.7476H97.8516V93.4158H105.518V106.196H77.1572V99.7476H80.8965V77.6226H77.1572V70.515ZM110.808 70.515H124.494C126.125 70.515 127.685 70.7268 129.174 71.1506C130.679 71.5741 132.074 72.1704 133.36 72.9393C134.661 73.7081 135.837 74.6339 136.887 75.7164C137.953 76.7836 138.863 77.9759 139.615 79.2939C140.368 80.612 140.948 82.0324 141.355 83.5546C141.763 85.076 141.967 86.6606 141.967 88.3085C141.967 89.9565 141.763 91.5411 141.355 93.0625C140.948 94.5847 140.368 96.0127 139.615 97.3465C138.863 98.6646 137.953 99.8726 136.887 100.971C135.837 102.054 134.661 102.988 133.36 103.772C132.074 104.541 130.679 105.137 129.174 105.561C127.685 105.985 126.125 106.196 124.494 106.196H110.808V99.7476H113.653V76.9877H110.808V70.515ZM121.461 76.9877V99.7476H124.447C125.717 99.7476 126.916 99.4494 128.045 98.8528C129.174 98.2563 130.154 97.4482 130.985 96.4284C131.815 95.3928 132.474 94.1847 132.96 92.8042C133.446 91.4078 133.689 89.909 133.689 88.3085C133.689 86.7239 133.446 85.2409 132.96 83.8604C132.474 82.4791 131.815 81.2793 130.985 80.2587C130.154 79.2389 129.174 78.4391 128.045 77.8584C126.916 77.2777 125.717 76.9877 124.447 76.9877H121.461Z" fill="#263639"/>
<path d="M7.92499 11.015H24.3865C26.2208 11.015 27.9061 11.3053 29.4425 11.8858C30.979 12.4507 32.3037 13.2196 33.4168 14.1925C34.5299 15.1653 35.4001 16.2872 36.0271 17.5581C36.6542 18.8291 36.9678 20.155 36.9678 21.5358C36.9678 23.1991 36.717 24.7603 36.2153 26.2195C35.7293 27.6631 34.9689 28.9184 33.9342 29.9854C32.8995 31.0524 31.5904 31.8997 30.0069 32.5273C28.4235 33.1392 26.55 33.4452 24.3865 33.4452H19.4246V40.2472H22.6933V46.6962H7.92499V40.2472H11.6171V17.4876H7.92499V11.015ZM19.4246 17.4876V27.0669H22.6463C24.4336 27.0669 25.8524 26.6903 26.9028 25.9371C27.9531 25.1839 28.4784 23.9915 28.4784 22.3596C28.4784 20.8376 27.9845 19.645 26.9968 18.782C26.0091 17.9191 24.559 17.4876 22.6463 17.4876H19.4246ZM64.1039 31.1857H57.4958V28.6673C56.853 28.6673 56.265 28.7144 55.732 28.8085C55.199 28.887 54.7287 29.0282 54.321 29.2322C53.9291 29.4362 53.5921 29.7186 53.3099 30.0795C53.0433 30.4404 52.8552 30.8876 52.7455 31.4211V40.2472H57.7074V46.6962H41.8103V40.2472H45.4554V28.7615H41.8573V22.3125H52.6984V24.0306C53.3882 23.4815 54.1643 23.0578 55.0265 22.7597C55.8888 22.4616 56.8294 22.3125 57.8485 22.3125C58.8832 22.3125 59.9493 22.3203 61.0467 22.336C62.1441 22.3517 63.1632 22.3596 64.1039 22.3596V31.1857ZM70.0281 22.3125H80.9634V40.2472H84.3498V46.6962H70.0281V40.2472H73.6967V28.7615H70.0281V22.3125ZM73.3204 14.4513C73.3204 13.8708 73.4223 13.3294 73.6262 12.8273C73.8456 12.3096 74.1435 11.8623 74.5198 11.4858C74.896 11.1092 75.3353 10.8111 75.8365 10.5914C76.3542 10.3717 76.9103 10.2619 77.5063 10.2619C78.0707 10.2619 78.6035 10.3717 79.1055 10.5914C79.6074 10.8111 80.0461 11.1092 80.4224 11.4858C80.7986 11.8623 81.0966 12.3096 81.3164 12.8273C81.5353 13.3294 81.6452 13.8708 81.6452 14.4513C81.6452 15.0319 81.5353 15.5811 81.3164 16.0989C81.0966 16.601 80.7986 17.0403 80.4224 17.4169C80.0461 17.7935 79.6074 18.0916 79.1055 18.3113C78.6035 18.531 78.0707 18.6408 77.5063 18.6408C76.9103 18.6408 76.3542 18.531 75.8365 18.3113C75.3353 18.0916 74.896 17.7935 74.5198 17.4169C74.1435 17.0403 73.8456 16.601 73.6262 16.0989C73.4223 15.5811 73.3204 15.0319 73.3204 14.4513ZM110.569 32.6685C110.569 31.3034 110.208 30.2364 109.487 29.4676C108.765 28.683 107.809 28.2907 106.618 28.2907C105.803 28.2907 104.98 28.4712 104.149 28.832C103.318 29.193 102.51 29.8676 101.726 30.8562V40.2472H105.677V46.6962H90.5325V40.2472H94.107V28.7615H90.5799V22.3125H101.68V24.4544C102.699 23.654 103.835 23.0264 105.089 22.5714C106.359 22.1007 107.692 21.8653 109.087 21.8653C112.019 21.8653 114.276 22.6891 115.86 24.3366C117.443 25.9685 118.235 28.3613 118.235 31.5153V40.2472H121.692V46.6962H110.569V32.6685ZM135.988 22.3125H140.856V28.479H135.941L135.894 38.788C135.894 39.3843 135.941 39.8707 136.035 40.2472C136.129 40.6081 136.262 40.8984 136.435 41.1181C136.623 41.3377 136.842 41.4868 137.094 41.5653C137.344 41.6438 137.634 41.683 137.963 41.683C138.559 41.683 139.084 41.628 139.539 41.5182C139.994 41.3926 140.448 41.2514 140.903 41.0945L141.914 45.6371C141.114 46.1392 140.221 46.5393 139.233 46.8374C138.261 47.1355 137.101 47.2846 135.753 47.2846C134.796 47.2846 133.88 47.1199 133.001 46.7904C132.139 46.4608 131.379 45.9665 130.72 45.3075C130.062 44.6328 129.537 43.7934 129.145 42.7892C128.753 41.785 128.564 40.616 128.58 39.2822L128.651 28.479H125.147V22.3125H128.674L128.722 16.4755L136.035 12.9921L135.988 22.3125Z" fill="#263639"/>
<path d="M33.8637 78.3291H5.2677V106.949H33.8637V78.3291Z" fill="#1BBBFF"/>
<path d="M50.4192 73.057H21.8232V101.677H50.4192V73.057Z" fill="#F43FF0"/>
<path d="M66.9747 67.7848H38.3788V96.4051H66.9747V67.7848Z" fill="#FFFF1F"/>
</svg>
