<svg width="35" height="35" viewBox="0 0 35 35" fill="none" xmlns="http://www.w3.org/2000/svg">
<g clip-path="url(#clip0_340_3289)">
<path fill-rule="evenodd" clip-rule="evenodd" d="M0 30.625C0 33.0411 1.95891 35 4.375 35H30.625C33.0411 35 35 33.0411 35 30.625V10.9375H0V30.625ZM14.2188 6.5625C13.615 6.5625 13.125 6.07359 13.125 5.46875C13.125 4.865 13.615 4.375 14.2188 4.375C14.8225 4.375 15.3125 4.865 15.3125 5.46875C15.3125 6.07359 14.8225 6.5625 14.2188 6.5625ZM9.84375 6.5625C9.24 6.5625 8.75 6.07359 8.75 5.46875C8.75 4.865 9.24 4.375 9.84375 4.375C10.4475 4.375 10.9375 4.865 10.9375 5.46875C10.9375 6.07359 10.4475 6.5625 9.84375 6.5625ZM5.46875 6.5625C4.865 6.5625 4.375 6.07359 4.375 5.46875C4.375 4.865 4.865 4.375 5.46875 4.375C6.0725 4.375 6.5625 4.865 6.5625 5.46875C6.5625 6.07359 6.0725 6.5625 5.46875 6.5625ZM30.625 0H4.375C1.95891 0 0 1.95891 0 4.375V8.75H35V4.375C35 1.95891 33.0411 0 30.625 0Z" fill="white"/>
</g>
<defs>
<clipPath id="clip0_340_3289">
<rect width="35" height="35" fill="white"/>
</clipPath>
</defs>
</svg>
