<svg width="35" height="35" viewBox="0 0 35 35" fill="none" xmlns="http://www.w3.org/2000/svg">
<path d="M24.5001 9.96153H30.2078C30.3075 9.96431 30.4068 9.94672 30.4995 9.90982C30.5922 9.87292 30.6765 9.8175 30.747 9.74693C30.8176 9.67637 30.873 9.59215 30.9099 9.49943C30.9468 9.40671 30.9644 9.30744 30.9616 9.20768C30.9681 9.10755 30.9522 9.00723 30.9149 8.91406C30.8776 8.8209 30.82 8.73724 30.7462 8.66922L23.6385 1.56153C23.5705 1.48776 23.4869 1.43013 23.3937 1.39287C23.3005 1.3556 23.2002 1.33964 23.1001 1.34614C23.0003 1.34336 22.9011 1.36095 22.8083 1.39785C22.7156 1.43475 22.6314 1.49018 22.5608 1.56074C22.4903 1.6313 22.4348 1.71552 22.3979 1.80824C22.361 1.90096 22.3434 2.00024 22.3462 2.09999V7.80768C22.348 8.37837 22.5755 8.92518 22.979 9.32872C23.3826 9.73226 23.9294 9.95975 24.5001 9.96153Z" fill="white"/>
<path d="M29.8847 13.1921H22.3463C21.49 13.1903 20.6692 12.8494 20.0637 12.2439C19.4582 11.6384 19.1173 10.8176 19.1155 9.96133V2.42287C19.1155 2.13725 19.002 1.86333 18.8001 1.66137C18.5981 1.45941 18.3242 1.34595 18.0386 1.34595H7.26934C6.41304 1.34773 5.59231 1.68868 4.98681 2.29418C4.38131 2.89968 4.04035 3.72041 4.03857 4.57672V30.4229C4.04035 31.2792 4.38131 32.0999 4.98681 32.7054C5.59231 33.3109 6.41304 33.6519 7.26934 33.6536H27.7309C28.5872 33.6519 29.4079 33.3109 30.0134 32.7054C30.6189 32.0999 30.9599 31.2792 30.9617 30.4229V14.269C30.9617 14.1276 30.9338 13.9876 30.8797 13.8569C30.8256 13.7262 30.7462 13.6075 30.6462 13.5075C30.5462 13.4075 30.4275 13.3282 30.2969 13.2741C30.1662 13.22 30.0262 13.1921 29.8847 13.1921ZM8.34627 12.1152C8.3583 11.8365 8.47664 11.5731 8.67695 11.3791C8.87726 11.185 9.14432 11.0751 9.42319 11.0719H13.8318C13.9697 11.071 14.1064 11.0973 14.2342 11.1493C14.3619 11.2012 14.4782 11.2778 14.5763 11.3747C14.6744 11.4716 14.7525 11.5868 14.8061 11.7139C14.8597 11.8409 14.8877 11.9773 14.8886 12.1152V13.1854C14.88 13.4659 14.7644 13.7324 14.5653 13.9303C14.3662 14.1281 14.0989 14.2421 13.8184 14.2488H9.42319C9.28278 14.2516 9.14326 14.2259 9.013 14.1735C8.88273 14.121 8.7644 14.0428 8.6651 13.9435C8.56579 13.8442 8.48756 13.7258 8.43509 13.5956C8.38261 13.4653 8.35698 13.3258 8.35973 13.1854L8.34627 12.1152ZM24.5001 26.095C24.5001 26.3806 24.3867 26.6545 24.1847 26.8565C23.9827 27.0584 23.7088 27.1719 23.4232 27.1719H9.42319C9.13757 27.1719 8.86365 27.0584 8.66169 26.8565C8.45973 26.6545 8.34627 26.3806 8.34627 26.095V25.0383C8.34627 24.7526 8.45973 24.4787 8.66169 24.2768C8.86365 24.0748 9.13757 23.9613 9.42319 23.9613H23.4232C23.7088 23.9613 23.9827 24.0748 24.1847 24.2768C24.3867 24.4787 24.5001 24.7526 24.5001 25.0383V26.095ZM26.654 19.6334C26.6566 19.7766 26.6308 19.9188 26.5779 20.0518C26.5249 20.1848 26.446 20.3059 26.3458 20.408C26.2455 20.5102 26.1259 20.5913 25.9939 20.6467C25.8619 20.7021 25.7202 20.7306 25.577 20.7306H9.42319C9.13757 20.7306 8.86365 20.6171 8.66169 20.4151C8.45973 20.2132 8.34627 19.9393 8.34627 19.6536V18.5767C8.34627 18.2911 8.45973 18.0172 8.66169 17.8152C8.86365 17.6133 9.13757 17.4998 9.42319 17.4998H25.577C25.8627 17.4998 26.1366 17.6133 26.3385 17.8152C26.5405 18.0172 26.654 18.2911 26.654 18.5767V19.6334Z" fill="white"/>
</svg>
