<svg width="36" height="36" viewBox="0 0 36 36" fill="none" xmlns="http://www.w3.org/2000/svg">
<path d="M23.2497 8.251L27.4923 12.4936M19.5 31.5H31.5M4.5 31.5006L4.57118 31.0025C4.82304 29.2394 4.94898 28.3578 5.23543 27.5348C5.48962 26.8046 5.83686 26.1101 6.26859 25.4685C6.75511 24.7455 7.38479 24.1158 8.64411 22.8566L26.116 5.38454C27.2877 4.21298 29.1872 4.21296 30.3588 5.38454C31.5303 6.55611 31.5303 8.4556 30.3588 9.62718L12.5662 27.4197C11.4237 28.5623 10.8525 29.1335 10.2018 29.5878C9.62427 29.991 9.0014 30.3251 8.34597 30.5831C7.60757 30.8736 6.81563 31.0334 5.2319 31.353L4.5 31.5006Z" stroke="black" stroke-width="2" stroke-linecap="round" stroke-linejoin="round"/>
</svg>
